<?xml version="1.0" encoding="utf-8"?>
<!-- Generator: Adobe Illustrator 27.9.0, SVG Export Plug-In . SVG Version: 6.00 Build 0)  -->
<svg version="1.1" id="图层_1" xmlns="http://www.w3.org/2000/svg" xmlns:xlink="http://www.w3.org/1999/xlink" x="0px" y="0px"
	 viewBox="0 0 1000 1000" style="enable-background:new 0 0 1000 1000;" xml:space="preserve">
<style type="text/css">
	.st0{fill:#A17866;}
</style>
<path class="st0" d="M520.4,354c-6.4,0.6-11.9,2.6-16.5,5.9c-4.7,3.4-8.5,7.6-11.5,12.7s-5.2,10.8-6.4,17.3
	c-1.3,6.5-1.6,13-0.9,19.8c0.8,8.7,3.3,14.8,7.5,18.3c4.1,3.5,9.3,4.9,15.5,4.4c3.8-0.4,7.2-1,9.9-1.8s5.7-1.9,8.9-3.2l5.6-73
	c-2.2-0.4-4.2-0.6-6.1-0.6C524.6,353.7,522.6,353.8,520.4,354L520.4,354z M69.2,292.1c138.8,138.5,277.3,277.2,416,415.7
	c11.7,11.8,17,11.7,28.9-0.1l393.2-393.2c9.6-9.6,22.9-17.8,27.6-29.4c4.8-11.9,1.5-27.3,1.5-41.3c0.1-27.5-13.4-40.9-41-40.9H102.5
	c-26.1,0-39.7,13.9-39.8,40.2c0,11,0.4,22-0.2,33C62.2,282.8,64.5,287.4,69.2,292.1L69.2,292.1z M387.1,372.6
	c4.6-18.1,12.7-35,24.2-50.4c11.6-15.5,27-28.6,46.1-39.5s42.4-17.6,69.8-20.3c14.7-1.4,28.7-0.7,42.1,1.9
	c13.5,2.7,25.4,7.6,35.9,14.8c10.5,7.2,19.2,16.6,26.1,28.3c6.8,11.8,11.1,25.9,12.7,42.5c1.2,12,0.3,24-2.5,36.1s-7.3,23.1-13.6,33
	c-6.2,9.9-14.1,18.3-23.8,25.1c-9.6,6.8-20.5,10.8-32.8,12.2c-14.1,1.4-25.1-1.3-33.2-7.9c-5.5,3.5-11.3,6.6-17.5,9.4
	s-14.1,4.7-23.8,5.6c-6.1,0.6-12.1,0.2-17.6-1c-5.6-1.3-10.5-3.8-15-7.3c-4.4-3.6-8.1-8.2-11.1-14s-4.9-12.8-5.7-21.1
	c-1.3-13.1-0.2-25.4,3.1-36.7c3.3-11.3,8.3-21.3,15.1-30c6.7-8.6,14.9-15.6,24.4-21s19.9-8.7,31.3-9.8c8.7-0.8,17.3-1,25.8-0.5
	c8.5,0.4,16.6,1.6,24.2,3.6l-9.1,100c2.1,1.3,5.3,1.8,9.8,1.4c7.2-0.7,13.3-3.4,18.5-8.2c5.2-4.8,9.3-10.7,12.4-17.9
	c3.2-7.1,5.3-14.8,6.4-23.3c1.2-8.4,1.3-16.5,0.5-24.5c-2.1-22.2-10.5-38.5-25.1-49c-14.7-10.5-34.2-14.5-58.8-12.2
	c-18.9,1.8-35.4,6.7-49.6,14.5c-14.2,7.9-25.8,17.8-34.8,29.7s-15.6,25.1-19.6,39.9c-3.9,14.7-5.2,29.6-3.8,44.9
	c1.3,13.9,4.5,25.6,9.7,35c5.1,9.5,11.5,17,19.2,22.5c7.8,5.6,16.5,9.4,26.4,11.4c9.8,1.9,20.1,2.4,31,1.4c10-1,19.2-2.5,27.6-4.5
	c8.4-2.1,15.9-4.8,22.6-8.2c2.1,4.1,4.2,8.3,6.2,12.7c1.9,4.4,3.8,8.7,5.3,13.1c-3.3,2.1-7.3,4.1-12,5.9c-4.7,1.9-9.8,3.6-15.3,5
	c-5.5,1.5-11.4,2.7-17.6,3.8c-6.2,1.1-12.5,1.9-18.6,2.5c-14.9,1.4-29.2,0.6-42.9-2.4c-13.8-3-26.1-8.4-37-16.2
	c-10.8-7.8-19.8-18.1-26.9-30.8c-7.1-12.8-11.5-28.4-13.3-46.7C381,408.5,382.5,390.8,387.1,372.6L387.1,372.6z M738.9,559.1
	c-2.3-2.3-4.6-4.4-8.6-8.3c-2.3,3-4.1,6.2-6.6,8.6c-59.9,60-119.8,119.9-179.8,179.9c-28.1,28.1-60.5,28.2-88.4,0.3
	c-59.9-59.9-119.9-119.9-179.8-179.9c-2.5-2.5-4.4-5.6-6.9-8.9c-2.9,2.6-3.9,3.4-4.8,4.3C198.6,620.5,133.2,686,67.6,751.3
	c-5.9,5.9-5.5,12-3.8,18.6c4.6,17.8,17.9,26.9,38.6,26.9h794c2.6,0,5.2,0.2,7.8-0.1c12.7-1.5,22.9-7.3,28.3-19.2
	c5.5-12.1,6.8-18.9-4.5-30.1C864.5,685.2,801.8,622,738.9,559.1z M63.4,691.7l170-170c-56.7-57.2-113.5-114.4-170-171.4V691.7z
	 M935.7,690.6V350.1L765.5,520.3L935.7,690.6z"/>
</svg>
