<?xml version="1.0" encoding="utf-8"?>
<!-- Generator: Adobe Illustrator 27.9.0, SVG Export Plug-In . SVG Version: 6.00 Build 0)  -->
<svg version="1.1" id="图层_1" xmlns="http://www.w3.org/2000/svg" xmlns:xlink="http://www.w3.org/1999/xlink" x="0px" y="0px"
	 viewBox="0 0 200 200" style="enable-background:new 0 0 200 200;" xml:space="preserve">
<style type="text/css">
	.st0{fill:#47372B;}
	.st1{fill:#A17866;}
	.st2{fill:#63492D;}
	.st3{fill:#DDC8C0;}
	.st4{fill:#B2A8A1;}
</style>
<path class="st0" d="M41.5,114.3h-0.2c-2.5,0-4.9-1.1-6.6-2.9h0c-3.6-3.7-3.5-9.7,0.2-13.3l38.1-36.8c0.3-0.3,0.7-0.5,1.1-0.4
	c0.4,0,0.8,0.2,1.1,0.5l10.8,11.2c0.6,0.6,0.6,1.6,0,2.2c0,0,0,0,0,0L48,111.6C46.3,113.3,44,114.3,41.5,114.3L41.5,114.3z
	 M37,109.2c1.2,1.2,2.7,1.9,4.4,1.9h0.1c1.6,0,3.2-0.6,4.3-1.8l37-35.7l-8.7-9l-37,35.7C34.7,102.8,34.6,106.7,37,109.2L37,109.2z
	 M96.1,57.8c-12.9,0-23.4-10.5-23.4-23.4s10.5-23.4,23.4-23.4s23.4,10.5,23.4,23.4S109,57.8,96.1,57.8z M96.1,14.1
	c-11.2,0-20.3,9.1-20.3,20.3s9.1,20.3,20.3,20.3s20.3-9.1,20.3-20.3S107.3,14.1,96.1,14.1z"/>
<path class="st1" d="M118,107.8V62.5l-12.5-4.7c-4.2,7.1-14.5,7.1-18.7,0l0,0l-12.5,4.7l0,45.3"/>
<path class="st0" d="M118,109.4c-0.9,0-1.6-0.7-1.6-1.6V63.6l-10.3-3.9c-2.3,3.1-6.1,5-10,5c-3.9,0-7.6-1.8-10-5l-10.3,3.9l0,44.2
	c0,0.9-0.7,1.6-1.6,1.6s-1.6-0.7-1.6-1.6l0-45.3c0-0.7,0.4-1.2,1-1.5l12.5-4.7c0.7-0.3,1.5,0,1.9,0.7c1.7,2.8,4.7,4.6,8,4.5
	c3.3,0,6.4-1.7,8-4.5c0.4-0.6,1.2-0.9,1.9-0.7l12.5,4.7c0.6,0.2,1,0.8,1,1.5v45.3C119.5,108.7,118.8,109.4,118,109.4
	C118,109.4,118,109.4,118,109.4z"/>
<path class="st0" d="M157,79.7H118c-0.9,0-1.6-0.7-1.6-1.6V62.5c0-0.9,0.7-1.6,1.6-1.6H157c5.2,0,9.4,4.2,9.4,9.4
	S162.2,79.7,157,79.7z M119.5,76.6H157c3.4,0,6.2-2.8,6.2-6.2s-2.8-6.2-6.2-6.2h-37.5V76.6z M143,156.3c-0.9,0-1.6-0.7-1.6-1.6v-25
	c0-7.8-6.3-14.1-14.1-14.1H64.8c-7.8,0-14.1,6.3-14.1,14.1v25c0,0.9-0.7,1.6-1.6,1.6s-1.6-0.7-1.6-1.6v-25c0-9.5,7.7-17.2,17.2-17.2
	h62.5c9.5,0,17.2,7.7,17.2,17.2v25C144.5,155.6,143.8,156.3,143,156.3z"/>
<path class="st0" d="M124.2,156.3c-0.8,0-1.4-0.6-1.5-1.4l-2.8-22.3c-0.1-0.8-0.8-1.4-1.5-1.4H73.9c-0.8,0-1.5,0.6-1.6,1.4
	l-2.8,22.3c-0.1,0.9-0.9,1.5-1.7,1.4c-0.9-0.1-1.5-0.9-1.4-1.7l2.8-22.3c0.3-2.3,2.3-4.1,4.7-4.1h44.5c2.4,0,4.4,1.8,4.6,4.1
	l2.8,22.3c0.1,0.9-0.5,1.6-1.4,1.7C124.3,156.2,124.3,156.3,124.2,156.3z"/>
<path class="st2" d="M165.6,170.3H34.4c-0.9,0-1.8-0.3-2.6-0.8l-9.4-6.2c-2.2-1.4-2.8-4.3-1.4-6.5s4.3-2.8,6.5-1.4
	c0,0,0.1,0,0.1,0.1l8.2,5.5h128.1l8.1-6.7c2-1.6,5-1.3,6.6,0.8c1.6,2,1.3,4.8-0.6,6.4l-9.4,7.8C167.8,169.9,166.7,170.3,165.6,170.3
	L165.6,170.3z"/>
<path class="st0" d="M165.6,171.9H34.4c-1.2,0-2.4-0.4-3.5-1.1l-9.4-6.2c-2.9-1.9-3.6-5.8-1.7-8.7c0.9-1.4,2.3-2.3,4-2.6
	c1.6-0.3,3.3,0,4.7,0.9l7.8,5.2h127.1l7.6-6.4c2.7-2.2,6.6-1.9,8.8,0.8c2.2,2.7,1.9,6.6-0.8,8.8l0,0l-9.4,7.8
	C168.5,171.4,167.1,171.9,165.6,171.9L165.6,171.9z M25,156.3c-0.2,0-0.4,0-0.6,0.1c-1.7,0.3-2.8,2-2.5,3.7c0.2,0.8,0.6,1.5,1.3,2
	l9.4,6.2c0.5,0.3,1.1,0.5,1.7,0.5h131.2c0.7,0,1.4-0.3,2-0.7l9.4-7.8c0.6-0.5,1-1.3,1.1-2.1c0.2-1.7-1.1-3.2-2.8-3.4
	c-0.8-0.1-1.6,0.2-2.3,0.7l-8.1,6.7c-0.3,0.2-0.6,0.4-1,0.4H35.8c-0.3,0-0.6-0.1-0.9-0.3l-8.2-5.5C26.2,156.4,25.6,156.3,25,156.3z"
	/>
<path class="st0" d="M49.2,190.6c-6,0-10.9-4.9-10.9-10.9s4.9-10.9,10.9-10.9s10.9,4.9,10.9,10.9S55.2,190.6,49.2,190.6z
	 M49.2,171.9c-4.3,0-7.8,3.5-7.8,7.8c0,4.3,3.5,7.8,7.8,7.8s7.8-3.5,7.8-7.8C57,175.4,53.5,171.9,49.2,171.9z M143,190.6
	c-6,0-10.9-4.9-10.9-10.9s4.9-10.9,10.9-10.9s10.9,4.9,10.9,10.9S149,190.6,143,190.6z M143,171.9c-4.3,0-7.8,3.5-7.8,7.8
	c0,4.3,3.5,7.8,7.8,7.8s7.8-3.5,7.8-7.8C150.8,175.4,147.3,171.9,143,171.9z"/>
<path class="st3" d="M96.1,12.5L96.1,12.5c-12.1,0-21.9,9.8-21.9,21.9H118C118,22.3,108.2,12.5,96.1,12.5z"/>
<path class="st0" d="M118,35.9H74.2c-0.9,0-1.6-0.7-1.6-1.6c0-12.9,10.5-23.4,23.4-23.4h0c12.9,0,23.4,10.5,23.4,23.4
	C119.5,35.2,118.8,35.9,118,35.9z M75.8,32.8h40.5c-0.8-10.5-9.6-18.8-20.3-18.8S76.6,22.3,75.8,32.8z"/>
<path class="st3" d="M66.4,25c-4.3,0-7.8,3.5-7.8,7.8v1.6h15.6c0-3.4,0.8-6.5,2.1-9.4H66.4z"/>
<path class="st0" d="M74.2,35.9H58.6c-0.9,0-1.6-0.7-1.6-1.6v-1.6c0-5.2,4.2-9.4,9.4-9.4h9.9c0.9,0,1.6,0.7,1.6,1.5
	c0,0.2-0.1,0.5-0.2,0.7c-1.3,2.7-2,5.7-2,8.7C75.8,35.2,75.1,35.9,74.2,35.9C74.2,35.9,74.2,35.9,74.2,35.9z M60.2,32.8h12.6
	c0.1-2.1,0.6-4.2,1.3-6.2h-7.6C63,26.6,60.2,29.4,60.2,32.8z M115.6,29.7h-7.8c-0.9,0-1.6-0.7-1.6-1.6c0-0.9,0.7-1.6,1.6-1.6h7.8
	c0.9,0,1.6,0.7,1.6,1.6C117.2,29,116.5,29.7,115.6,29.7z M215.3,16h0.3 M-15.6,17.4v0.3"/>
<path class="st4" d="M153.1,32.8h-12.5c-0.9,0-1.6-0.7-1.6-1.6c0-0.9,0.7-1.6,1.6-1.6h12.5c0.9,0,1.6,0.7,1.6,1.6
	C154.7,32.1,154,32.8,153.1,32.8z"/>
<path class="st4" d="M146.9,39.1c-0.9,0-1.6-0.7-1.6-1.6V25c0-0.9,0.7-1.6,1.6-1.6s1.6,0.7,1.6,1.6v12.5
	C148.4,38.4,147.7,39.1,146.9,39.1z"/>
<path class="st4" d="M12.5,59H6.2c-0.9,0-1.6-0.7-1.6-1.6s0.7-1.6,1.6-1.6h6.2c0.9,0,1.6,0.7,1.6,1.6S13.4,59,12.5,59z"/>
<path class="st4" d="M54.7,59H18.8c-0.9,0-1.6-0.7-1.6-1.6s0.7-1.6,1.6-1.6h35.9c0.9,0,1.6,0.7,1.6,1.6S55.6,59,54.7,59z"/>
<path class="st4" d="M193.8,99.6h-6.2c-0.9,0-1.6-0.7-1.6-1.6c0-0.9,0.7-1.6,1.6-1.6h6.2c0.9,0,1.6,0.7,1.6,1.6
	C195.3,98.9,194.6,99.6,193.8,99.6z"/>
<path class="st4" d="M181.2,99.6h-35.9c-0.9,0-1.6-0.7-1.6-1.6c0-0.9,0.7-1.6,1.6-1.6h35.9c0.9,0,1.6,0.7,1.6,1.6
	C182.8,98.9,182.1,99.6,181.2,99.6z"/>
</svg>
